<svg xmlns="http://www.w3.org/2000/svg" viewBox="0 0 128 128" role="img" aria-labelledby="title desc">
  <title id="title">수학 보스전 아이콘</title>
  <desc id="desc">검은 배경 위에 노란 별과 수학 기호가 있는 앱 아이콘</desc>
  <rect width="128" height="128" rx="16" fill="#151515"/>
  <path d="M64 13 77.5 45.5 112 48.5 86 71 94 105 64 87 34 105 42 71 16 48.5 50.5 45.5Z" fill="#f7c948"/>
  <path d="M35 38h21v9H35zm6-6h9v21h-9zm36 8h28v9H77zm5 20h18v8H82zm0 16h18v8H82z" fill="#151515"/>
  <path d="M38 80 52 66l7 7-14 14 14 14-7 7-14-14-14 14-7-7 14-14-14-14 7-7z" fill="#151515"/>
</svg>
